<svg width="100" height="100" viewBox="0 0 100 100" fill="none" xmlns="http://www.w3.org/2000/svg">
<g id="Group 2">
<g id="Sticker">
<path id="Vector" d="M96.4805 49.9992C98.0249 48.2008 99.1071 46.0527 99.6334 43.7413C100.16 41.4299 100.114 39.0251 99.5004 36.7353C98.8868 34.4456 97.7238 32.3401 96.1123 30.6016C94.5008 28.8631 92.4894 27.544 90.2527 26.7588C90.691 24.429 90.5541 22.0275 89.8541 19.7626C89.1541 17.4977 87.912 15.4378 86.2356 13.7616C84.5592 12.0854 82.4991 10.8436 80.2341 10.1438C77.9691 9.44409 75.5676 9.30758 73.2379 9.74613C72.4533 7.5089 71.1344 5.497 69.3959 3.88511C67.6573 2.27321 65.5516 1.11003 63.2616 0.496571C60.9715 -0.116891 58.5663 -0.162097 56.2548 0.364877C53.9433 0.891851 51.7953 1.97508 49.9974 3.52051C48.199 1.97614 46.0509 0.893891 43.7395 0.367645C41.4282 -0.158601 39.0233 -0.11295 36.7335 0.500638C34.4438 1.11423 32.3383 2.27722 30.5998 3.88873C28.8613 5.50023 27.5422 7.51158 26.757 9.74829C24.4274 9.31045 22.0261 9.44758 19.7615 10.1478C17.4969 10.848 15.4373 12.0901 13.7614 13.7665C12.0855 15.4428 10.8438 17.5027 10.1442 19.7675C9.44456 22.0323 9.30805 24.4336 9.74649 26.7631C7.50978 27.5483 5.49842 28.8674 3.88691 30.6059C2.2754 32.3445 1.11241 34.4499 0.498818 36.7397C-0.11477 39.0294 -0.160428 41.4343 0.365818 43.7457C0.892064 46.0571 1.97433 48.2051 3.5187 50.0036C1.97386 51.8019 0.891261 53.9502 0.364866 56.2618C-0.16153 58.5734 -0.115832 60.9786 0.498025 63.2685C1.11188 65.5585 2.27533 67.664 3.88739 69.4024C5.49945 71.1408 7.51143 72.4595 9.74866 73.244C9.30984 75.5736 9.44619 77.975 10.1459 80.24C10.8456 82.5049 12.0876 84.5648 13.7639 86.2409C15.4402 87.917 17.5003 89.1587 19.7653 89.8581C22.0303 90.5575 24.4318 90.6936 26.7613 90.2545C27.5465 92.4912 28.8656 94.5026 30.6041 96.1141C32.3426 97.7256 34.4481 98.8886 36.7378 99.5022C39.0276 100.116 41.4325 100.161 43.7439 99.6352C46.0552 99.1089 48.2033 98.0266 50.0018 96.4823C51.8001 98.0271 53.9484 99.1097 56.26 99.6361C58.5716 100.163 60.9768 100.117 63.2667 99.5029C65.5567 98.8891 67.6622 97.7256 69.4006 96.1136C71.139 94.5015 72.4577 92.4896 73.2422 90.2523C75.5719 90.691 77.9733 90.5546 80.2383 89.8548C82.5033 89.1551 84.5632 87.9132 86.2395 86.237C87.9158 84.5607 89.1577 82.5007 89.8574 80.2358C90.5571 77.9708 90.6935 75.5693 90.2549 73.2397C92.4917 72.4547 94.5033 71.1356 96.1149 69.397C97.7264 67.6584 98.8894 65.5528 99.5028 63.2629C100.116 60.973 100.162 58.568 99.6349 56.2566C99.1082 53.9453 98.0254 51.7973 96.4805 49.9992Z" fill="#757575"/>
</g>
<g id="Group 1">
<line id="Line 1" x1="35.951" y1="34.0005" x2="65.0012" y2="63.0507" stroke="white" stroke-width="7" stroke-linecap="round"/>
<line id="Line 2" x1="35.2512" y1="63.0507" x2="64.3015" y2="34.0005" stroke="white" stroke-width="7" stroke-linecap="round"/>
</g>
</g>
</svg>
