<svg width="52" height="45" viewBox="0 0 52 45" fill="none" xmlns="http://www.w3.org/2000/svg">
<g id="Layer_1" clip-path="url(#clip0_3_739)">
<path id="Vector" d="M48.7602 15.6047C46.6414 13.471 44.1035 13.0531 43.1903 12.9481C43.3475 12.5776 43.5093 12.1058 43.6129 11.5454C44.3475 7.5637 41.6738 1.47201 36.4273 0.429809C32.6232 -0.325834 28.819 1.40083 26.811 4.53109C26.2606 3.72525 24.7325 1.7175 21.9622 0.68169C21.2777 0.426159 18.0678 -0.773927 14.8749 0.784815C11.8232 2.2742 9.90545 5.73574 9.90367 9.60339C9.22809 9.47197 8.21829 9.3652 7.05033 9.60339C3.04957 10.4184 1.28377 14.4402 1.17386 14.7022C-0.106705 17.7485 0.473256 21.3879 2.61259 24.1723C2.29536 25.0357 2.08446 26.0067 2.08446 26.9786C2.08446 30.9713 4.9378 34.2092 8.63651 34.8563L5.78317 45.0009L16.4557 40.3602C17.6183 41.5476 19.2036 42.4109 20.8943 42.7349C23.2196 43.1665 25.4384 42.7349 27.3401 41.6552C28.1854 42.1946 29.1362 42.5186 30.0879 42.7349C35.0547 43.8145 39.9151 40.4688 40.9723 35.3965C41.1832 34.1016 41.1832 32.8066 40.9723 31.6192C44.3627 32.081 47.6459 30.6227 49.6342 27.9478C50.879 26.2741 51.2409 24.6213 51.3285 24.1723C51.9022 21.241 51.0416 17.9009 48.7611 15.6047H48.7602ZM33.7518 30.0203H30.3962V18.9093L25.9156 30.0203H23.3759L18.8703 18.9093V30.0203H15.5156V12.9381H19.326L24.6458 25.6398L29.9655 12.9381H33.7527V30.0203H33.7518Z" fill="white"/>
</g>
<defs>
<clipPath id="clip0_3_739">
<rect width="51" height="45" fill="white" transform="translate(0.5)"/>
</clipPath>
</defs>
</svg>
